<svg width="513" height="512" viewBox="0 0 513 512" fill="none" xmlns="http://www.w3.org/2000/svg">
<path d="M463.228 20.3L315.828 75.65L368.728 109C274.228 228 137.528 301.3 22.0283 329.2L54.7483 388.8C184.528 346.5 321.928 270.2 410.428 135.4L450.728 160.8L463.228 20.3ZM470.928 137L466.128 191.8L414.828 159.4C413.028 162.1 411.128 164.7 409.228 167.4V487H487.228V137H470.928ZM320.328 265C307.628 276 294.528 286.4 281.228 296.2V487H359.228V265H320.328ZM196.628 349C182.228 356.6 167.828 363.6 153.228 370.2V487H231.228V349H196.628ZM25.2283 393V487H103.228V393H97.5483C82.7283 398.5 67.9183 403.6 53.1983 408.3L46.1383 410.5L36.5383 393H25.2283Z" fill="white"/>
</svg>
