<svg width="25" height="24" viewBox="0 0 25 24" fill="none" xmlns="http://www.w3.org/2000/svg">
<path d="M21.2285 5C20.1185 4.65 18.8985 4.5 17.7285 4.5C15.7785 4.5 13.6785 4.9 12.2285 6C10.7785 4.9 8.67852 4.5 6.72852 4.5C4.77852 4.5 2.67852 4.9 1.22852 6V20.65C1.22852 20.9 1.47852 21.15 1.72852 21.15C1.82852 21.15 1.87852 21.1 1.97852 21.1C3.32852 20.45 5.27852 20 6.72852 20C8.67852 20 10.7785 20.4 12.2285 21.5C13.5785 20.65 16.0285 20 17.7285 20C19.3785 20 21.0785 20.3 22.4785 21.05C22.5785 21.1 22.6285 21.1 22.7285 21.1C22.9785 21.1 23.2285 20.85 23.2285 20.6V6C22.6285 5.55 21.9785 5.25 21.2285 5ZM21.2285 18.5C20.1285 18.15 18.9285 18 17.7285 18C16.0285 18 13.5785 18.65 12.2285 19.5V8C13.5785 7.15 16.0285 6.5 17.7285 6.5C18.9285 6.5 20.1285 6.65 21.2285 7V18.5Z" fill="white"/>
<path d="M17.7285 10.5C18.6085 10.5 19.4585 10.59 20.2285 10.76V9.24C19.4385 9.09 18.5885 9 17.7285 9C16.0285 9 14.4885 9.29 13.2285 9.83V11.49C14.3585 10.85 15.9285 10.5 17.7285 10.5ZM13.2285 12.49V14.15C14.3585 13.51 15.9285 13.16 17.7285 13.16C18.6085 13.16 19.4585 13.25 20.2285 13.42V11.9C19.4385 11.75 18.5885 11.66 17.7285 11.66C16.0285 11.66 14.4885 11.96 13.2285 12.49ZM17.7285 14.33C16.0285 14.33 14.4885 14.62 13.2285 15.16V16.82C14.3585 16.18 15.9285 15.83 17.7285 15.83C18.6085 15.83 19.4585 15.92 20.2285 16.09V14.57C19.4385 14.41 18.5885 14.33 17.7285 14.33Z" fill="white"/>
</svg>
